<?xml version="1.0"?>
<svg xmlns="http://www.w3.org/2000/svg" xmlns:xlink="http://www.w3.org/1999/xlink" xmlns:svgjs="http://svgjs.com/svgjs" version="1.1" width="512" height="512" x="0" y="0" viewBox="0 0 511 511.99953" style="enable-background:new 0 0 512 512" xml:space="preserve" class=""><g><path xmlns="http://www.w3.org/2000/svg" d="m343.273438 225.046875c53.179687-25.457031 95.785156 5.390625 102.726562 7.25 51.96875 24.5 92.160156-49.347656 45.304688-80.417969-14.488282-7.996094-51.546876-42.207031-117.546876-50.855468-45.210937-5.925782-91.039062 3.253906-118.910156 18.066406 13.0625-61.449219-34.050781-119.089844-96.417968-119.089844-54.351563 0-98.570313 44.21875-98.570313 98.570312 0 58.476563 50.925781 104.433594 109.464844 97.964844l-5.792969 5.792969c-18.976562 18.976563-46.683594 25.820313-72.3125 17.863281l-26.777344-8.3125c-31.769531-9.863281-63.941406 13.832032-63.941406 47.097656 0 16.574219 8.246094 31.941407 22.0625 41.101563 42.449219 28.152344 94.058594 42.75 147.4375 39.308594-43.71875 43.53125-65.269531 81.859375-73.75 93.660156-13.25 19.953125-10.578125 46.726563 6.359375 63.660156 19.746094 19.746094 51.769531 19.742188 71.5-.066406l53.332031-53.53125c22.65625-22.742187 50.601563-39.03125 81.371094-47.542969 36.816406 40.832032 78.566406 76.835938 124.734375 107.5 50.449219 33.507813 106.640625-34.976562 63.59375-77.859375-59.898437-59.675781-111.617187-126.960937-153.867187-200.160156zm-243.453126-126.476563c0-32.316406 26.292969-58.609374 58.609376-58.609374 32.316406 0 58.609374 26.292968 58.609374 58.609374 0 32.320313-26.292968 58.609376-58.609374 58.609376-32.316407 0-58.609376-26.289063-58.609376-58.609376zm99.308594 316.335938-53.328125 53.53125c-4.214843 4.230469-10.910156 4.039062-14.933593.015625-3.539063-3.539063-4.097657-9.128906-1.328126-13.296875 8.605469-11.085938 42.359376-75.339844 121.902344-132.535156 8.265625 11.375 16.0625 22.890625 29.515625 39.9375-30.660156 11.199218-58.542969 28.972656-81.828125 52.347656zm256.527344 54.871094c-125.808594-83.558594-173.945312-179.941406-186.929688-190.328125-12.203124-9.765625-24.695312-.265625-26.316406.132812-63.445312 31.132813-138.773437 26.3125-197.765625-12.808593-8.902343-5.90625-2.355469-19.925782 7.945313-16.730469l26.777344 8.3125c39.84375 12.371093 82.921874 1.730469 112.421874-27.769531l60.457032-60.457032c9.699218-9.699218 21.691406-17.136718 34.683594-21.515625 26.101562-8.792969 54.328124-11.546875 81.636718-7.96875 55.199219 7.234375 85.707032 36.191407 100.652344 44.539063 6.476562 4.292968.796875 14.253906-6.179688 10.964844l-15.9375-7.511719c-46.3125-21.832031-100.90625-16.832031-142.480468 13.046875-8.257813 5.933594-10.742188 17.121094-5.769532 25.988281 4.589844 7.050781 58.808594 114.984375 170.085938 225.847656 2 1.992188 3.101562 4.640625 3.105469 7.464844.007812 8.378906-9.375 13.449219-16.386719 8.792969zm0 0" fill="#ffffff" data-original="#000000" style="" class=""/></g></svg>
