<?xml version="1.0"?>
<svg xmlns="http://www.w3.org/2000/svg" viewBox="0 0 512 512" width="512" height="512" class=""><g><path d="m512 256c0 141.386719-114.613281 256-256 256s-256-114.613281-256-256 114.613281-256 256-256 256 114.613281 256 256zm0 0" fill="#414952" data-original="#414952" class="active-path" style="fill:#FFFFFF" data-old_color="#414952"/><path d="m512 256c0-6.40625-.242188-12.753906-.703125-19.042969l-117.207031-117.203125-279.414063 269.136719 122.414063 122.414063c6.246094.453124 12.550781.695312 18.910156.695312 141.386719 0 256-114.613281 256-256zm0 0" fill="#333940" data-original="#333940" class="" style="fill:#FFFFFF" data-old_color="#333940"/><path d="m450 256c0 107.144531-86.855469 194-194 194s-194-86.855469-194-194 86.855469-194 194-194 194 86.855469 194 194zm0 0" fill="#f50" data-original="#F50" class=""/><path d="m256 450c107.144531 0 194-86.855469 194-194s-86.855469-194-194-194zm0 0" fill="#e82e10" data-original="#E82E10" class=""/><path d="m376.914062 326.003906-70.003906-70.003906 70.003906-70.003906-50.910156-50.910156-70.003906 70.003906-70.003906-70.003906-50.910156 50.910156 70.003906 70.003906-70.003906 70.003906 50.910156 50.910156 70.003906-70.003906 70.003906 70.003906zm0 0" fill="#fff" data-original="#FFF" class="" data-old_color="#fff" style="fill:#FFFFFF"/><path d="m256 306.910156 70.003906 70.003906 50.910156-50.910156-70.003906-70.003906 70.003906-70.003906-50.910156-50.910156-70.003906 70.003906zm0 0" fill="#dce1eb" data-original="#DCE1EB" class=""/></g> </svg>
