<?xml version="1.0"?>
<svg xmlns="http://www.w3.org/2000/svg" xmlns:xlink="http://www.w3.org/1999/xlink" xmlns:svgjs="http://svgjs.com/svgjs" version="1.1" width="512" height="512" x="0" y="0" viewBox="0 0 384 384" style="enable-background:new 0 0 512 512" xml:space="preserve" class=""><g><path xmlns="http://www.w3.org/2000/svg" d="m304 384c8.832031 0 16-7.167969 16-16v-272c0-4.238281-1.6875-8.3125-4.6875-11.3125l-80-80c-3-3-7.074219-4.6875-11.3125-4.6875h-208c-8.832031 0-16 7.167969-16 16v352c0 8.832031 7.167969 16 16 16zm-86.632812-352 70.632812 70.625v249.375h-256v-256h64c8.832031 0 16-7.167969 16-16s-7.167969-16-16-16h-64v-32zm0 0" fill="#ffffff" data-original="#000000" style="" class=""/><path xmlns="http://www.w3.org/2000/svg" d="m64 224c0 52.9375 43.0625 96 96 96s96-43.0625 96-96-43.0625-96-96-96-96 43.0625-96 96zm96-64c35.289062 0 64 28.710938 64 64s-28.710938 64-64 64-64-28.710938-64-64 28.710938-64 64-64zm0 0" fill="#ffffff" data-original="#000000" style="" class=""/><path xmlns="http://www.w3.org/2000/svg" d="m128 240h16v16c0 8.832031 7.167969 16 16 16s16-7.167969 16-16v-16h16c8.832031 0 16-7.167969 16-16s-7.167969-16-16-16h-16v-16c0-8.832031-7.167969-16-16-16s-16 7.167969-16 16v16h-16c-8.832031 0-16 7.167969-16 16s7.167969 16 16 16zm0 0" fill="#ffffff" data-original="#000000" style="" class=""/></g></svg>
