<?xml version="1.0"?>
<svg xmlns="http://www.w3.org/2000/svg" xmlns:xlink="http://www.w3.org/1999/xlink" xmlns:svgjs="http://svgjs.com/svgjs" version="1.1" width="512" height="512" x="0" y="0" viewBox="0 0 512 512" style="enable-background:new 0 0 512 512" xml:space="preserve" class=""><g>
<circle xmlns="http://www.w3.org/2000/svg" style="" cx="256" cy="256" r="256" fill="#b1afaf" data-original="#ff432e" class=""/>
<path xmlns="http://www.w3.org/2000/svg" style="" d="M511.28,275.28L389.333,153.333L122.667,421.5l86.142,86.142C224.106,510.493,239.876,512,256,512  C390.898,512,501.422,407.659,511.28,275.28z" fill="#d1cece" data-original="#db0404" class=""/>
<polygon xmlns="http://www.w3.org/2000/svg" style="" points="311,75 122.667,75 122.667,421.5 389.333,421.5 389.333,153.333 " fill="#ffffff" data-original="#ffffff" class=""/>
<polygon xmlns="http://www.w3.org/2000/svg" style="" points="389.333,153.333 311,75 255.571,75 255.571,421.5 389.333,421.5 " fill="#ffffff" data-original="#f2f6fc" class=""/>
<polygon xmlns="http://www.w3.org/2000/svg" style="" points="311,153.333 389.333,153.333 311,75 " fill="#c7c7c7" data-original="#dce1eb" class=""/>
<circle xmlns="http://www.w3.org/2000/svg" style="" cx="256" cy="272" r="105.67" fill="#808080" data-original="#00c8c8" class=""/>
<path xmlns="http://www.w3.org/2000/svg" style="" d="M256,166.333c-0.143,0-0.285,0.005-0.429,0.005V377.66c0.143,0.001,0.285,0.005,0.429,0.005  c58.358,0,105.667-47.309,105.667-105.667S314.358,166.333,256,166.333z" fill="#686868" data-original="#1cadb5" class=""/>
<polygon xmlns="http://www.w3.org/2000/svg" style="" points="323.625,251.616 276.009,251.616 276.009,204 235.991,204 235.991,251.616 188.375,251.616   188.375,291.634 235.991,291.634 235.991,339.25 276.009,339.25 276.009,291.634 323.625,291.634 " fill="#ffffff" data-original="#dbeeff" class=""/>
<polygon xmlns="http://www.w3.org/2000/svg" style="" points="276.009,251.616 276.009,204 255.571,204 255.571,339.25 276.009,339.25 276.009,291.634   323.625,291.634 323.625,251.616 " fill="#ffffff" data-original="#bfe1ff" class=""/>
<g xmlns="http://www.w3.org/2000/svg">
</g>
<g xmlns="http://www.w3.org/2000/svg">
</g>
<g xmlns="http://www.w3.org/2000/svg">
</g>
<g xmlns="http://www.w3.org/2000/svg">
</g>
<g xmlns="http://www.w3.org/2000/svg">
</g>
<g xmlns="http://www.w3.org/2000/svg">
</g>
<g xmlns="http://www.w3.org/2000/svg">
</g>
<g xmlns="http://www.w3.org/2000/svg">
</g>
<g xmlns="http://www.w3.org/2000/svg">
</g>
<g xmlns="http://www.w3.org/2000/svg">
</g>
<g xmlns="http://www.w3.org/2000/svg">
</g>
<g xmlns="http://www.w3.org/2000/svg">
</g>
<g xmlns="http://www.w3.org/2000/svg">
</g>
<g xmlns="http://www.w3.org/2000/svg">
</g>
<g xmlns="http://www.w3.org/2000/svg">
</g>
</g></svg>
