<?xml version="1.0"?>
<svg xmlns="http://www.w3.org/2000/svg" xmlns:xlink="http://www.w3.org/1999/xlink" version="1.1" id="Capa_1" x="0px" y="0px" viewBox="0 0 455.5 455.5" style="enable-background:new 0 0 455.5 455.5;" xml:space="preserve" width="512" height="512" class="hovered-paths"><g><g>
	<path d="M242.56,420.117l-60.104-60.103l132.781-132.781l60.103,60.104L242.56,420.117z" data-original="#000000" class="hovered-path active-path" style="fill:#FFFFFF" data-old_color="#000000"/>
	<polygon points="235.787,14.793 235.787,85.5 306.494,85.5  " data-original="#000000" class="hovered-path active-path" style="fill:#FFFFFF" data-old_color="#000000"/>
	<path d="M152.04,348H70.787v-30H182.04l40-40H70.787v-30H252.04l69.247-69.247V115.5h-115.5V0h-185.5v416h107.062l15.702-53.79   l2.153-7.374L152.04,348z M70.787,178h200v30h-200V178z" data-original="#000000" class="hovered-path active-path" style="fill:#FFFFFF" data-old_color="#000000"/>
	<path d="M336.449,206.018l38.661-38.661l60.104,60.104l-38.661,38.661L336.449,206.018z" data-original="#000000" class="hovered-path active-path" style="fill:#FFFFFF" data-old_color="#000000"/>
	<polygon points="158.602,416 147.071,455.5 215.534,435.514 167.057,387.036  " data-original="#000000" class="hovered-path active-path" style="fill:#FFFFFF" data-old_color="#000000"/>
</g></g> </svg>
