<?xml version="1.0"?>
<svg xmlns="http://www.w3.org/2000/svg" xmlns:xlink="http://www.w3.org/1999/xlink" xmlns:svgjs="http://svgjs.com/svgjs" version="1.1" width="512" height="512" x="0" y="0" viewBox="0 0 512 512" style="enable-background:new 0 0 512 512" xml:space="preserve" class=""><g><g xmlns="http://www.w3.org/2000/svg"><path d="m80.979 150c-3.979 0-7.794-1.58-10.606-4.394l-54.791-54.791c-10.048-10.046-15.582-23.406-15.582-37.616s5.534-27.569 15.582-37.617c10.047-10.048 23.406-15.582 37.617-15.582 9.961 0 19.503 2.719 27.78 7.806 8.278-5.087 17.82-7.806 27.781-7.806 14.21 0 27.569 5.534 37.616 15.582 10.048 10.048 15.582 23.407 15.582 37.617s-5.534 27.569-15.582 37.617l-54.79 54.79c-2.813 2.814-6.628 4.394-10.607 4.394z" fill="#ffffff" data-original="#000000" style="" class=""/><g><path d="m487 30h-55v90h55c13.807 0 25-11.193 25-25v-40c0-13.807-11.193-25-25-25z" fill="#ffffff" data-original="#000000" style="" class=""/><path d="m402 30h-175c-13.807 0-25 11.193-25 25v40c0 13.807 11.193 25 25 25h175z" fill="#ffffff" data-original="#000000" style="" class=""/></g><g><path d="m302 392h-75c-13.807 0-25 11.193-25 25v40c0 13.807 11.193 25 25 25h75z" fill="#ffffff" data-original="#000000" style="" class=""/><path d="m487 392h-155v90h155c13.807 0 25-11.193 25-25v-40c0-13.807-11.193-25-25-25z" fill="#ffffff" data-original="#000000" style="" class=""/></g><g><path d="m487 211h-115v90h115c13.807 0 25-11.193 25-25v-40c0-13.807-11.193-25-25-25z" fill="#ffffff" data-original="#000000" style="" class=""/><path d="m342 211h-115c-13.807 0-25 11.193-25 25v40c0 13.807 11.193 25 25 25h115z" fill="#ffffff" data-original="#000000" style="" class=""/></g><path d="m119.968 321c-2.387 0-4.783-.569-6.979-1.723l-32.01-16.829-32.01 16.829c-5.055 2.657-11.179 2.214-15.797-1.142-4.619-3.356-6.933-9.044-5.968-14.671l6.113-35.645-25.895-25.242c-4.089-3.985-5.561-9.946-3.796-15.377 1.765-5.43 6.458-9.388 12.108-10.208l35.789-5.2 16.005-32.431c2.527-5.12 7.741-8.361 13.451-8.361s10.924 3.241 13.451 8.361l16.005 32.431 35.789 5.2c5.65.82 10.344 4.778 12.108 10.208 1.765 5.431.293 11.392-3.796 15.377l-25.896 25.243 6.113 35.645c.965 5.627-1.349 11.314-5.968 14.671-2.612 1.898-5.707 2.864-8.817 2.864z" fill="#ffffff" data-original="#000000" style="" class=""/><path d="m80.979 512c-1.892 0-3.783-.357-5.57-1.073-36.103-14.44-59.43-48.896-59.43-87.778v-46.149c0-8.284 6.716-15 15-15h100c8.284 0 15 6.716 15 15v46.148c0 38.883-23.327 73.338-59.43 87.778-1.786.717-3.678 1.074-5.57 1.074z" fill="#ffffff" data-original="#000000" style="" class=""/></g></g></svg>
