<?xml version="1.0"?>
<svg xmlns="http://www.w3.org/2000/svg" xmlns:xlink="http://www.w3.org/1999/xlink" xmlns:svgjs="http://svgjs.com/svgjs" version="1.1" width="512" height="512" x="0" y="0" viewBox="0 0 512 512" style="enable-background:new 0 0 512 512" xml:space="preserve" class=""><g>
<g xmlns="http://www.w3.org/2000/svg">
	<g>
		<path d="M4.594,34.683L16.23,90.775L0,134.242l15.785,42.266L0,218.776l15.785,42.266L0,303.308l15.785,42.268L0,387.842    l16.229,43.46L4.594,487.388h380.431V34.683H4.594z M115.208,118.94l8.093,8.093l17.447-17.447l21.229,21.229l-38.677,38.676    l-29.322-29.321L115.208,118.94z M123.301,423.1l-29.322-29.323l21.229-21.228l8.093,8.093l17.447-17.447l21.229,21.229    L123.301,423.1z M123.301,338.565l-29.322-29.323l21.229-21.228l8.093,8.093l17.447-17.447l21.229,21.229L123.301,338.565z     M123.301,254.028l-29.322-29.321l21.229-21.23l8.093,8.093l17.447-17.447l21.229,21.23L123.301,254.028z M301.027,407.529    H188.779v-30.023h112.248V407.529z M301.027,322.993H188.779V292.97h112.248V322.993z M301.027,238.456H188.779v-30.023h112.248    V238.456z M301.027,153.921H188.779v-30.023h112.248V153.921z" fill="#ffffff" data-original="#000000" style="" class=""/>
	</g>
</g>
<g xmlns="http://www.w3.org/2000/svg">
	<g>
		<rect x="413.015" y="104.069" width="98.976" height="42.495" fill="#ffffff" data-original="#000000" style="" class=""/>
	</g>
</g>
<g xmlns="http://www.w3.org/2000/svg">
	<g>
		<path d="M463.383,12.78h-1.745c-26.807,0-48.617,21.81-48.617,48.617v12.646H512V61.397C512,34.589,490.19,12.78,463.383,12.78z" fill="#ffffff" data-original="#000000" style="" class=""/>
	</g>
</g>
<g xmlns="http://www.w3.org/2000/svg">
	<g>
		<rect x="413.015" y="176.585" width="98.976" height="194.148" fill="#ffffff" data-original="#000000" style="" class=""/>
	</g>
</g>
<g xmlns="http://www.w3.org/2000/svg">
	<g>
		<polygon points="413.02,400.755 413.02,444.434 462.51,499.22 512,444.434 512,400.755   " fill="#ffffff" data-original="#000000" style="" class=""/>
	</g>
</g>
<g xmlns="http://www.w3.org/2000/svg">
</g>
<g xmlns="http://www.w3.org/2000/svg">
</g>
<g xmlns="http://www.w3.org/2000/svg">
</g>
<g xmlns="http://www.w3.org/2000/svg">
</g>
<g xmlns="http://www.w3.org/2000/svg">
</g>
<g xmlns="http://www.w3.org/2000/svg">
</g>
<g xmlns="http://www.w3.org/2000/svg">
</g>
<g xmlns="http://www.w3.org/2000/svg">
</g>
<g xmlns="http://www.w3.org/2000/svg">
</g>
<g xmlns="http://www.w3.org/2000/svg">
</g>
<g xmlns="http://www.w3.org/2000/svg">
</g>
<g xmlns="http://www.w3.org/2000/svg">
</g>
<g xmlns="http://www.w3.org/2000/svg">
</g>
<g xmlns="http://www.w3.org/2000/svg">
</g>
<g xmlns="http://www.w3.org/2000/svg">
</g>
</g></svg>
