<?xml version="1.0"?>
<svg xmlns="http://www.w3.org/2000/svg" xmlns:xlink="http://www.w3.org/1999/xlink" xmlns:svgjs="http://svgjs.com/svgjs" version="1.1" width="512" height="512" x="0" y="0" viewBox="0 0 512 512" style="enable-background:new 0 0 512 512" xml:space="preserve"><g><g xmlns="http://www.w3.org/2000/svg"><path d="m473.91 199.735c4.702 18.267 8.09 37.193 8.09 56.265 0 124.072-101.928 226-226 226-72.123 0-139.504-34.975-181.877-91h31.877v-30h-71.719l-17.827 71.367 29.092 7.266 6.874-27.462c48.103 61.646 123.312 99.829 203.58 99.829 140.61 0 256-115.39 256-256 0-21.592-3.695-43.037-9.027-63.735z" fill="#ffffff" data-original="#000000" style=""/><path d="m38.09 312.265c-4.702-18.267-8.09-37.193-8.09-56.265 0-124.072 101.928-226 226-226 72.123 0 139.504 34.975 181.877 91h-31.877v30h71.719l17.827-71.367-29.092-7.266-6.874 27.462c-48.103-61.646-123.312-99.829-203.58-99.829-140.61 0-256 115.39-256 256 0 21.592 3.695 43.037 9.027 63.735z" fill="#ffffff" data-original="#000000" style=""/><circle cx="256" cy="256" r="45" fill="#ffffff" data-original="#000000" style=""/><path d="m376.396 134.345-32.842 19.116c-12.334-10.444-26.763-18.677-42.554-24.287v-38.174h-90v38.174c-15.791 5.61-30.22 13.843-42.554 24.287l-32.842-19.116-44.985 78.281 33.003 18.999c-1.465 7.236-2.622 15.513-2.622 24.375 0 8.848 1.157 17.124 2.637 24.375l-33.018 18.999 44.985 78.281 32.842-19.116c12.334 10.444 26.763 18.677 42.554 24.287v38.174h90v-38.174c15.791-5.61 30.22-13.843 42.554-24.287l32.842 19.116 44.985-78.281-33.018-18.999c1.48-7.251 2.637-15.527 2.637-24.375 0-8.862-1.157-17.139-2.622-24.375l33.003-18.999zm-120.396 196.655c-41.353 0-75-33.647-75-75s33.647-75 75-75 75 33.647 75 75-33.647 75-75 75z" fill="#ffffff" data-original="#000000" style=""/></g></g></svg>
