<?xml version="1.0"?>
<svg xmlns="http://www.w3.org/2000/svg" xmlns:xlink="http://www.w3.org/1999/xlink" xmlns:svgjs="http://svgjs.com/svgjs" version="1.1" width="512" height="512" x="0" y="0" viewBox="0 0 512 512" style="enable-background:new 0 0 512 512" xml:space="preserve" class=""><g><g xmlns="http://www.w3.org/2000/svg"><path d="m72 144c-39.701 0-72-32.299-72-72s32.299-72 72-72 72 32.299 72 72-32.299 72-72 72zm0-112c-22.056 0-40 17.944-40 40s17.944 40 40 40 40-17.944 40-40-17.944-40-40-40z" fill="#ffffff" data-original="#000000" style="" class=""/><path d="m72 328c-39.701 0-72-32.299-72-72s32.299-72 72-72 72 32.299 72 72-32.299 72-72 72zm0-112c-22.056 0-40 17.944-40 40s17.944 40 40 40 40-17.944 40-40-17.944-40-40-40z" fill="#ffffff" data-original="#000000" style="" class=""/><path d="m72 512c-39.701 0-72-32.299-72-72s32.299-72 72-72 72 32.299 72 72-32.299 72-72 72zm0-112c-22.056 0-40 17.944-40 40s17.944 40 40 40 40-17.944 40-40-17.944-40-40-40z" fill="#ffffff" data-original="#000000" style="" class=""/><path d="m440 144h-192c-39.701 0-72-32.299-72-72s32.299-72 72-72h192c39.701 0 72 32.299 72 72s-32.299 72-72 72z" fill="#ffffff" data-original="#000000" style="" class=""/><path d="m440 328h-192c-39.701 0-72-32.299-72-72s32.299-72 72-72h192c39.701 0 72 32.299 72 72s-32.299 72-72 72z" fill="#ffffff" data-original="#000000" style="" class=""/><path d="m440 512h-192c-39.701 0-72-32.299-72-72s32.299-72 72-72h192c39.701 0 72 32.299 72 72s-32.299 72-72 72z" fill="#ffffff" data-original="#000000" style="" class=""/></g></g></svg>
