<?xml version="1.0"?>
<svg xmlns="http://www.w3.org/2000/svg" id="Capa_1" enable-background="new 0 0 512 512" height="512" viewBox="0 0 512 512" width="512" class=""><g><g><g><g><g><g><g><g><g><g><circle cx="256" cy="256" fill="#b180ff" r="256" data-original="#B180FF" class="" data-old_color="#b180ff" style="fill:#FFFFFF"/></g></g></g></g></g></g></g></g><path d="m512 256c0-5.393-.167-10.748-.496-16.058l-123.724-123.724-263.157 279.935 115.353 115.353c5.3.327 10.643.494 16.024.494 141.385 0 256-114.615 256-256z" fill="#9a4dff" data-original="#9A4DFF" class="" data-old_color="#9a4dff" style="fill:#FFFFFF"/><g><g><g><g><g><g><g><g><circle cx="256" cy="256" fill="#ff73a5" r="192.112" data-original="#FF73A5" class="" style="fill:#FFD731" data-old_color="#ff73a5"/></g></g></g></g></g></g></g></g><g><g><g><g><g><g><g><g><path d="m448.112 256c0-106.06-85.947-192.045-191.992-192.111v384.221c106.046-.065 191.992-86.05 191.992-192.11z" fill="#ff468c" data-original="#FF468C" class="active-path" style="fill:#FEDF00" data-old_color="#ff468c"/></g></g></g></g></g></g></g></g><g><path d="m219.837 108.396h72.326v194.823h-72.326z" fill="#fff" data-original="#FFF" class=""/></g><g><path d="m256.12 108.396h36.042v194.823h-36.042z" fill="#e9edf5" data-original="#E9EDF5" class=""/></g><g><path d="m256 411.313c-22.091 0-40-17.909-40-40v-.076c0-22.091 17.909-40 40-40 22.091 0 40 17.909 40 40v.076c0 22.092-17.909 40-40 40z" fill="#fff" data-original="#FFF" class=""/></g><g><path d="m256.12 331.24v80.07c22.036-.065 39.88-17.946 39.88-39.997v-.076c0-22.051-17.844-39.932-39.88-39.997z" fill="#e9edf5" data-original="#E9EDF5" class=""/></g></g></g> </svg>
