<?xml version="1.0"?>
<svg xmlns="http://www.w3.org/2000/svg" xmlns:xlink="http://www.w3.org/1999/xlink" xmlns:svgjs="http://svgjs.com/svgjs" version="1.1" width="512" height="512" x="0" y="0" viewBox="0 0 512 512" style="enable-background:new 0 0 512 512" xml:space="preserve"><g><path xmlns="http://www.w3.org/2000/svg" d="m0 121h512v-121h-512zm181-75h30v30h-30zm-60 0h30v30h-30zm-60 0h30v30h-30zm0 0" fill="#ffffff" data-original="#000000" style=""/><path xmlns="http://www.w3.org/2000/svg" d="m0 512h512v-361h-512zm121-46h-30v-30h30zm-30-120v-30h30v30zm150 120h-90v-30h90zm211 0h-181v-30h181zm0-60h-331v-30h331zm-211-90v30h-90v-30zm-90-30v-30h90v30zm301 60h-181v-30h181zm0-60h-181v-30h181zm-331-90h331v30h-331zm0 90h-30v-30h30zm-60-90h30v30h-30zm0 180h30v30h-30zm0 0" fill="#ffffff" data-original="#000000" style=""/></g></svg>
